<svg xmlns="http://www.w3.org/2000/svg" width="102" height="102" viewBox="0 0 102 102" fill="none">
  <g clip-path="url(#clip0_6_27)">
    <path d="M3.0885 -70.8033L-4.84666 -76.6H4.9685L8 -86L11.0315 -76.6H20.8467L12.9115 -70.8033L15.9352 -61.3485L8 -67.2L0.0648422 -61.3485L3.0885 -70.8033ZM12.9115 92.6L15.9352 102L8 96.2033L0.0648422 102L3.0885 92.6L-4.84666 86.8033H4.9685L8 77.3485L11.0315 86.8033H20.8467L12.9115 92.6ZM-73.1533 14.2667L-81.0885 20.1182L-78.0648 10.7182L-86 5.07817H-76.1848L-73.1533 -4.32183L-70.1218 5.07817H-60.2518L-68.2418 10.9218L-65.2182 20.3218L-73.1533 14.4782V14.2667ZM-27.6652 -59.8915L-24.6415 -50.4915L-32.5767 -56.2333L-40.5118 -50.4367L-37.4882 -59.8367L-45.4233 -65.6333H-35.6082L-32.5767 -75.0333L-29.5452 -65.6333H-19.73L-27.6652 -59.8915ZM-65.1085 -35.7648L-62.0848 -45.1648L-58.9985 -35.7648H-49.4418L-57.3848 -29.9133L-54.3533 -20.5133L-62.3433 -26.3648L-70.3333 -20.5133L-67.3018 -29.9133L-75.2448 -35.7648H-65.1085ZM-75.1352 45.9133H-65.1085L-62.0848 36.5133L-58.9985 45.9133H-49.4418L-57.3848 51.7648L-54.3533 61.1648L-62.3433 55.3682L-70.3333 61.1648L-67.3018 51.7648L-75.2448 45.9133H-75.1352ZM-37.4882 81.6333L-45.4233 75.8915H-35.6082L-32.5767 66.4915L-29.5452 75.8915H-19.73L-27.6652 81.6333L-24.6415 91.0333L-32.5767 85.2367L-40.5118 91.0333L-37.4882 81.6333ZM94.0648 10.9218L97.0885 20.3218L89.1533 14.4782L81.1085 20.3218L84.14 10.9218L76.15 5.07817H86.3333L89.3648 -4.32183L92.3885 5.07817H102L94.0648 10.9218ZM43.6652 -59.8915L35.73 -65.6333H45.5452L48.5767 -75.0333L51.6082 -65.6333H61.4233L53.4882 -59.8915L56.5118 -50.4915L48.5767 -56.2333L40.6415 -50.4367L43.6652 -59.8367V-59.8915ZM74.9985 -35.8118L78.0848 -45.2118L81.1085 -35.8118H90.9315L83.2 -29.9133L86.2315 -20.5133L78.2885 -26.3648L70.2985 -20.5133L73.33 -29.9133L65.4418 -35.7648L74.9985 -35.8118ZM81.1085 45.9133H90.9315L83.2 51.7648L86.2315 61.1648L78.2885 55.3682L70.2985 61.1648L73.33 51.7648L65.4418 45.9133H75.2648L78.3433 36.5133L81.3748 45.9133H81.1085ZM61.4233 75.8915L53.4882 81.6333L56.5118 91.0333L48.5767 85.2367L40.6415 91.0333L43.6652 81.6333L35.73 75.8915H45.5452L48.5767 66.4915L51.6082 75.8915H61.4233Z" fill="#FFCC00"/>
  </g>
  <defs>
    <clipPath id="clip0_6_27">
      <rect width="188" height="188" fill="white" transform="translate(-86 -86)"/>
    </clipPath>
  </defs>
</svg>
