<svg width="379" height="128" viewBox="0 0 379 128" fill="none" xmlns="http://www.w3.org/2000/svg">
  <path d="M303.652 29.5677L303.822 23.9377L309.652 24.2977L309.542 29.7377L303.652 29.5677Z" fill="#FFFEFF"/>
  <path d="M309.652 24.2977L312.022 17.8077L301.192 19.7677L303.822 23.9377" fill="#FFFEFF"/>
  <path d="M284.552 30.3877L284.802 24.9077L290.582 25.1777L290.402 30.4777L284.552 30.3877Z" fill="#FFFEFF"/>
  <path d="M290.582 25.1778L293.022 18.8278L282.242 20.8878L284.802 24.9078" fill="#FFFEFF"/>
  <path d="M263.052 30.2777L263.302 24.7977L269.082 25.0577L268.902 30.3677L263.052 30.2777Z" fill="#FFFEFF"/>
  <path d="M269.082 25.0578L271.532 18.7078L260.752 20.7678L263.302 24.7978" fill="#FFFEFF"/>
  <path d="M242.722 31.3977L242.972 25.9177L248.742 26.1877L248.572 31.4877L242.722 31.3977Z" fill="#FFFEFF"/>
  <path d="M248.742 26.1878L251.192 19.8278L240.412 21.8978L242.972 25.9178" fill="#FFFEFF"/>
  <path d="M220.032 31.9277L220.282 26.4478L226.062 26.7177L225.882 32.0177L220.032 31.9277Z" fill="#FFFEFF"/>
  <path d="M226.062 26.7178L228.502 20.3578L217.722 22.4278L220.282 26.4478" fill="#FFFEFF"/>
  <path d="M202.832 88.8878L190.522 97.4178C187.462 100.078 184.732 103.098 182.312 106.348C181.112 107.958 180.072 109.698 178.822 111.268C177.482 112.948 175.982 114.498 174.482 116.028C171.332 119.218 167.662 121.848 163.472 123.908C159.272 125.968 154.462 127.048 149.032 127.148C141.252 127.288 135.252 125.358 131.042 121.348C126.832 117.338 124.662 111.908 124.532 105.058C124.422 99.2878 125.482 93.5378 127.702 87.8178C129.912 82.1278 133.072 76.8378 137.032 72.1878C141.032 67.4878 145.652 63.6978 150.882 60.8078C156.112 57.9178 161.692 56.4178 167.612 56.3078C171.962 56.2278 175.802 56.9578 179.112 58.4778C182.422 60.0078 185.002 61.9878 186.862 64.4278C188.722 66.8678 189.672 69.4078 189.722 72.0478C189.782 75.3778 188.782 78.1078 186.712 80.2578C184.642 82.3978 182.102 83.4978 179.062 83.5578C176.322 83.6078 173.852 82.8578 171.642 81.3078C169.432 79.7578 168.302 77.3478 168.242 74.0678C168.192 71.1278 169.162 68.7078 171.152 66.7778C173.152 64.8578 175.542 63.8678 178.332 63.8178C180.042 63.7878 181.752 64.0478 183.452 64.6078C185.152 65.1678 186.582 66.0578 187.762 67.2778C188.932 68.5078 189.542 70.0978 189.572 72.0578L186.932 72.1078C186.892 69.9578 186.082 67.9378 184.502 66.0578C182.922 64.1778 180.922 62.6678 178.512 61.5378C176.092 60.4078 173.562 59.8678 170.922 59.9178C167.452 59.9778 164.252 61.2678 161.342 63.7678C158.422 66.2678 155.832 69.5578 153.562 73.6378C151.292 77.7178 149.372 82.1178 147.822 86.8478C146.272 91.5778 145.092 96.2478 144.302 100.868C143.502 105.488 143.142 109.558 143.202 113.078C143.262 116.458 144.142 118.988 145.842 120.668C147.542 122.348 149.832 123.168 152.712 123.108C156.382 123.038 159.892 122.148 163.232 120.418C166.582 118.688 169.682 116.418 172.542 113.598C175.402 110.778 177.632 107.328 180.002 104.058C181.522 101.958 183.272 99.8478 185.162 98.0278C187.232 96.0378 189.622 94.4078 191.982 92.7778C194.812 90.8178 197.502 88.3378 200.652 86.8878L202.832 88.8878Z" fill="#FFFEFF"/>
  <path d="M181.732 127.088L196.902 62.1177L197.562 59.2477L216.672 58.8977L200.892 126.738L181.732 127.088ZM220.642 126.368L231.402 80.9377C232.752 74.7477 233.582 70.2477 233.872 67.4577C234.162 64.6577 233.332 63.2777 231.372 63.3177C229.512 63.3477 227.382 64.5777 224.982 66.9977C222.582 69.4177 220.132 72.6777 217.632 76.7877C215.142 80.8977 212.812 85.5677 210.662 90.7977C208.502 96.0277 206.752 101.468 205.382 107.118L203.622 107.148C204.992 101.588 206.782 95.8877 208.992 90.0477C211.212 84.2077 213.792 78.8077 216.732 73.8577C219.672 68.9077 222.982 64.8977 226.642 61.8177C230.302 58.7377 234.242 57.1577 238.452 57.0877C242.462 57.0177 245.532 57.9777 247.642 59.9677C249.762 61.9577 251.072 64.6177 251.572 67.9377C252.072 71.2577 251.852 74.9077 250.892 78.8877L239.722 126.018L220.642 126.368ZM274.542 126.838C269.792 126.928 266.352 125.908 264.202 123.798C262.062 121.688 260.952 118.968 260.892 115.638C260.872 114.558 260.972 113.398 261.192 112.148C261.412 110.898 261.662 109.778 261.942 108.798L269.712 80.2377C271.362 74.1377 272.242 69.7077 272.362 66.9377C272.482 64.1677 271.592 62.8077 269.682 62.8377C267.822 62.8677 265.732 64.0877 263.402 66.4777C261.072 68.8677 258.692 72.1077 256.272 76.1877C253.852 80.2677 251.602 84.9177 249.522 90.1177C247.442 95.3177 245.712 100.748 244.352 106.408L242.592 106.438C243.952 100.788 245.682 95.0377 247.782 89.1977C249.872 83.3577 252.362 77.9777 255.232 73.0577C258.102 68.1377 261.342 64.1477 264.962 61.0877C268.582 58.0377 272.582 56.4677 276.992 56.3877C281.392 56.3077 284.652 57.2577 286.772 59.2577C288.892 61.2477 290.102 63.9077 290.412 67.2277C290.722 70.5477 290.322 74.2077 289.222 78.1877L278.852 116.708C278.712 117.248 278.592 117.828 278.482 118.438C278.372 119.048 278.322 119.608 278.332 120.088C278.342 120.678 278.522 121.148 278.872 121.508C279.222 121.868 279.742 122.038 280.422 122.028C281.892 121.998 283.492 121.368 285.232 120.138C286.972 118.908 288.832 116.778 290.802 113.758C292.772 110.738 294.822 106.518 296.922 101.088L299.732 101.988C297.442 107.958 295.112 112.748 292.732 116.358C290.352 119.978 287.692 122.608 284.762 124.248C281.802 125.908 278.402 126.768 274.542 126.838Z" fill="#FFFEFF"/>
  <path d="M311.792 126.368C305.042 126.488 300.112 124.418 297.032 120.148C293.952 115.878 292.332 110.118 292.202 102.868C292.102 97.2378 293.042 91.6577 295.052 86.1077C297.052 80.5677 299.772 75.5077 303.212 70.9377C306.652 66.3677 310.502 62.6877 314.752 59.8877C319.002 57.0877 323.362 55.6577 327.812 55.5677C330.842 55.5077 333.382 56.2377 335.412 57.7377C337.442 59.2377 338.982 61.3577 340.012 64.0777C341.042 66.7977 341.592 70.0177 341.662 73.7377C341.712 76.1877 341.452 79.1677 340.912 82.6777C340.372 86.1877 339.532 89.9077 338.402 93.8477C337.272 97.7877 335.892 101.658 334.252 105.458C332.612 109.258 330.662 112.718 328.422 115.848C326.182 118.968 323.672 121.488 320.892 123.398C318.112 125.308 315.062 126.308 311.792 126.368ZM318.052 119.788C320.012 119.748 322.012 118.708 324.052 116.668C326.092 114.628 328.042 111.908 329.882 108.518C331.732 105.128 333.372 101.388 334.812 97.2977C336.252 93.2077 337.372 89.0878 338.182 84.9378C338.982 80.7878 339.352 76.9277 339.292 73.3477C339.252 70.9477 338.972 68.8778 338.482 67.1178C337.982 65.3678 337.262 64.0178 336.312 63.0878C335.362 62.1478 334.132 61.6978 332.612 61.7278C330.702 61.7678 328.742 62.8877 326.732 65.1077C324.722 67.3277 322.792 70.2378 320.942 73.8378C319.092 77.4378 317.452 81.3777 315.982 85.6377C314.522 89.8977 313.382 94.1578 312.582 98.4078C311.782 102.658 311.412 106.518 311.472 109.998C311.532 113.128 312.122 115.558 313.262 117.268C314.402 118.988 316.002 119.828 318.052 119.788ZM346.142 125.728C341.592 125.808 338.252 124.838 336.142 122.798C334.022 120.758 332.932 117.948 332.862 114.378C332.842 113.448 332.852 112.638 332.892 111.958C332.922 111.268 332.992 110.688 333.082 110.198L335.142 98.7778L338.672 87.0377L340.492 74.3777L344.422 56.7578L364.242 56.3877L349.492 116.288C349.312 117.028 349.222 117.788 349.242 118.568C349.252 119.158 349.432 119.678 349.782 120.138C350.132 120.598 350.702 120.818 351.482 120.808C353.002 120.778 354.592 120.138 356.252 118.888C360.442 115.728 362.932 110.448 365.542 106.038C368.472 101.088 371.212 98.7678 377.212 99.1478C372.182 101.478 369.302 106.728 366.622 111.588C362.212 119.528 355.772 125.548 346.142 125.728Z" fill="#FFFEFF"/>
  <path d="M37.9824 46.6677V46.1478L377.172 44.3177L377.162 44.8678L37.9824 46.6677Z" fill="#FFFEFF"/>
  <path d="M38.0923 43.8278V43.3078L377.182 42.0178V42.5378L38.0923 43.8278Z" fill="#FFFEFF"/>
  <path d="M38.0225 40.7377V40.2177L377.192 39.6577V40.1777L38.0225 40.7377Z" fill="#FFFEFF"/>
  <path d="M38.1221 37.7678V37.2578L377.212 36.8378L377.202 37.3578L38.1221 37.7678Z" fill="#FFFEFF"/>
  <path d="M39.6057 29.2503L39.3594 54.1403L40.7394 54.1539L40.9857 29.2639L39.6057 29.2503Z" fill="#FFFEFF"/>
  <path d="M106.242 124.638C101.972 124.638 98.8821 123.708 96.9721 121.848C95.0621 119.988 94.1021 117.538 94.1021 114.508C94.1021 113.188 94.2021 111.948 94.4021 110.798C94.6021 109.648 94.7821 108.678 94.9621 107.898L107.232 58.4878L108.042 55.6278H124.912L110.262 114.948C110.172 115.338 110.092 115.758 110.032 116.198C109.962 116.638 109.932 117.058 109.932 117.448C109.932 118.138 110.082 118.698 110.392 119.138C110.702 119.578 111.202 119.798 111.912 119.798C113.272 119.798 114.712 119.198 116.232 117.998C117.752 116.798 119.402 114.708 121.182 111.718C122.962 108.728 124.862 104.598 126.892 99.3078L129.462 100.258C127.352 105.888 125.182 110.498 122.962 114.098C120.742 117.698 118.292 120.348 115.602 122.068C112.932 123.778 109.812 124.638 106.242 124.638Z" fill="#FFFEFF"/>
  <path d="M119.022 51.1878C124.794 51.1878 129.472 46.5092 129.472 40.7378C129.472 34.9665 124.794 30.2878 119.022 30.2878C113.251 30.2878 108.572 34.9665 108.572 40.7378C108.572 46.5092 113.251 51.1878 119.022 51.1878Z" fill="#FFFEFF"/>
  <path d="M119.022 47.2977C122.645 47.2977 125.582 44.3607 125.582 40.7377C125.582 37.1147 122.645 34.1777 119.022 34.1777C115.399 34.1777 112.462 37.1147 112.462 40.7377C112.462 44.3607 115.399 47.2977 119.022 47.2977Z" fill="#243E90"/>
  <path d="M107.562 58.7278C105.092 59.4378 102.672 60.2878 100.342 61.2778C93.2922 64.2678 87.0322 68.4478 80.2822 71.9078C60.7722 81.9178 33.9122 85.0578 16.1822 72.7678C-6.39778 57.1178 -6.04778 18.3778 21.6622 5.26778C29.7222 1.44778 43.9422 -0.702216 53.0122 0.207784C76.0722 2.50778 89.8922 8.75778 109.822 15.1578C152.092 28.7378 198.292 29.8078 243.372 28.7178C288.452 27.6278 377.532 24.8178 378.462 30.3978C373.882 30.2378 279.282 32.4678 229.662 32.4878C180.042 32.4978 129.392 28.3478 83.9122 11.2378C66.6722 4.74778 46.6222 2.38778 28.8522 7.62778C21.5622 9.77778 15.3022 14.1678 10.8722 19.5778C1.38222 31.1678 0.772217 47.6278 9.39222 59.7578C18.0122 71.8878 35.3622 79.0078 51.7522 77.1378C66.4822 75.4578 78.9622 67.4778 91.9822 61.3578C105.002 55.2378 110.212 52.4978 124.922 55.6378C124.872 55.8578 124.532 57.2278 124.532 57.2278C117.642 56.5478 114.762 56.6678 107.562 58.7278Z" fill="#FFFEFF"/>
</svg>
