<svg width="857" height="289" viewBox="0 0 857 289" fill="none" xmlns="http://www.w3.org/2000/svg">
  <path d="M689.418 67.1839L689.818 54.3839L703.018 55.1839L702.818 67.5839L689.418 67.1839Z" fill="#6F4F38"/>
  <path d="M703.019 55.1839L708.419 40.4839L683.819 44.8839L689.819 54.3839" fill="#6F4F38"/>
  <path d="M646.019 68.9839L646.619 56.5839L659.719 57.1839L659.319 69.2838L646.019 68.9839Z" fill="#6F4F38"/>
  <path d="M659.719 57.184L665.319 42.7839L640.819 47.4839L646.619 56.584" fill="#6F4F38"/>
  <path d="M597.219 68.7839L597.819 56.2839L610.919 56.8839L610.519 68.9839L597.219 68.7839Z" fill="#6F4F38"/>
  <path d="M610.919 56.8839L616.519 42.4839L592.019 47.1839L597.819 56.2839" fill="#6F4F38"/>
  <path d="M551.019 71.2839L551.619 58.8839L564.719 59.4839L564.319 71.4839L551.019 71.2839Z" fill="#6F4F38"/>
  <path d="M564.719 59.4839L570.319 45.0839L545.819 49.7838L551.619 58.8839" fill="#6F4F38"/>
  <path d="M499.519 72.4839L500.119 60.0839L513.219 60.6839L512.819 72.6839L499.519 72.4839Z" fill="#6F4F38"/>
  <path d="M513.219 60.684L518.819 46.2839L494.319 50.9839L500.119 60.084" fill="#6F4F38"/>
  <path d="M460.519 201.884L432.619 221.284C425.719 227.284 419.519 234.184 414.019 241.584C411.319 245.284 408.919 249.184 406.119 252.784C403.119 256.584 399.719 260.084 396.219 263.584C389.119 270.784 380.719 276.784 371.219 281.484C361.719 286.184 350.719 288.584 338.419 288.884C320.719 289.184 307.119 284.784 297.619 275.684C288.019 266.584 283.119 254.284 282.819 238.684C282.619 225.584 285.019 212.484 290.019 199.584C295.019 186.684 302.219 174.684 311.219 164.084C320.319 153.384 330.819 144.784 342.619 138.284C354.519 131.684 367.119 128.284 380.619 128.084C390.519 127.884 399.219 129.584 406.719 132.984C414.219 136.484 420.119 140.984 424.319 146.484C428.519 151.984 430.719 157.784 430.819 163.784C430.919 171.384 428.719 177.584 424.019 182.384C419.319 187.284 413.519 189.784 406.619 189.884C400.419 189.984 394.819 188.284 389.719 184.784C384.719 181.284 382.119 175.784 382.019 168.384C381.919 161.684 384.119 156.184 388.619 151.884C393.119 147.484 398.619 145.284 404.919 145.184C408.819 145.084 412.719 145.684 416.519 146.984C420.419 148.284 423.619 150.284 426.319 153.084C429.019 155.884 430.319 159.484 430.419 163.884L424.419 163.984C424.319 159.084 422.519 154.484 418.919 150.284C415.319 145.984 410.819 142.584 405.319 139.984C399.819 137.384 394.119 136.184 388.119 136.284C380.219 136.384 373.019 139.384 366.319 144.984C359.719 150.684 353.819 158.184 348.619 167.384C343.419 176.684 339.119 186.684 335.619 197.384C332.119 208.084 329.419 218.684 327.619 229.184C325.819 239.684 325.019 248.884 325.119 256.884C325.219 264.584 327.219 270.284 331.119 274.084C334.919 277.884 340.219 279.784 346.719 279.584C355.019 279.384 363.019 277.384 370.619 273.484C378.219 269.584 385.219 264.384 391.719 257.984C398.219 251.584 403.319 243.784 408.619 236.284C412.019 231.484 416.019 226.684 420.319 222.584C425.019 218.084 430.419 214.384 435.819 210.684C442.219 206.184 448.319 200.584 455.519 197.284L460.519 201.884Z" fill="#6F4F38"/>
  <path d="M412.619 288.584L447.119 141.084L448.619 134.584L492.019 133.784L456.219 287.784L412.619 288.584ZM500.919 286.984L525.319 183.784C528.419 169.684 530.219 159.484 530.919 153.184C531.619 146.884 529.719 143.684 525.219 143.784C521.019 143.884 516.119 146.684 510.719 152.184C505.219 157.684 499.719 165.084 494.019 174.384C488.319 183.684 483.119 194.284 478.219 206.184C473.319 218.084 469.319 230.384 466.219 243.284L462.219 243.384C465.319 230.784 469.419 217.784 474.419 204.584C479.419 191.284 485.319 179.084 492.019 167.784C498.719 156.584 506.219 147.384 514.519 140.484C522.819 133.484 531.819 129.884 541.319 129.784C550.419 129.584 557.419 131.784 562.219 136.284C567.019 140.784 570.019 146.884 571.119 154.384C572.219 161.884 571.719 170.184 569.619 179.284L544.219 286.284L500.919 286.984ZM623.319 287.984C612.519 288.184 604.719 285.884 599.819 281.084C594.919 276.284 592.419 270.084 592.319 262.584C592.319 260.184 592.519 257.484 593.019 254.684C593.519 251.884 594.119 249.284 594.719 247.084L612.319 182.284C616.019 168.484 618.119 158.384 618.319 152.084C618.619 145.784 616.519 142.684 612.219 142.784C608.019 142.884 603.219 145.584 597.919 151.084C592.619 156.484 587.219 163.884 581.719 173.184C576.219 182.484 571.119 192.984 566.419 204.784C561.719 216.584 557.819 228.884 554.719 241.784L550.719 241.884C553.819 229.084 557.719 215.984 562.519 202.784C567.319 189.484 572.919 177.284 579.419 166.084C585.919 154.884 593.319 145.884 601.519 138.884C609.719 131.984 618.819 128.384 628.819 128.184C638.819 127.984 646.219 130.184 651.019 134.684C655.819 139.184 658.619 145.284 659.319 152.784C660.019 160.284 659.119 168.584 656.619 177.684L633.019 265.184C632.719 266.384 632.419 267.684 632.219 269.084C631.919 270.484 631.819 271.684 631.919 272.884C631.919 274.184 632.319 275.284 633.119 276.084C633.919 276.884 635.119 277.284 636.619 277.284C639.919 277.184 643.619 275.784 647.519 272.984C651.519 270.184 655.719 265.384 660.219 258.484C664.719 251.584 669.319 242.084 674.119 229.684L680.519 231.684C675.319 245.184 670.019 256.084 664.619 264.284C659.219 272.484 653.219 278.484 646.519 282.184C639.819 285.884 632.119 287.884 623.319 287.984Z" fill="#6F4F38"/>
  <path d="M707.919 286.984C692.619 287.284 681.419 282.584 674.419 272.884C667.419 263.184 663.719 250.084 663.419 233.684C663.219 220.884 665.319 208.184 669.919 195.684C674.419 183.084 680.619 171.584 688.419 161.284C696.219 150.984 704.919 142.584 714.619 136.184C724.319 129.884 734.119 126.584 744.319 126.384C751.219 126.284 756.919 127.884 761.619 131.284C766.219 134.684 769.719 139.484 772.019 145.684C774.319 151.884 775.619 159.184 775.719 167.584C775.819 173.184 775.219 179.884 774.019 187.884C772.819 195.884 770.919 204.284 768.319 213.284C765.719 222.184 762.619 230.984 758.919 239.684C755.219 248.284 750.819 256.184 745.719 263.284C740.619 270.384 734.919 276.084 728.619 280.484C722.219 284.584 715.319 286.784 707.919 286.984ZM722.119 271.984C726.519 271.884 731.119 269.584 735.719 264.884C740.319 260.284 744.819 254.084 748.919 246.384C753.119 238.684 756.819 230.184 760.119 220.884C763.419 211.584 765.919 202.284 767.719 192.784C769.519 183.384 770.419 174.584 770.219 166.484C770.119 161.084 769.519 156.284 768.419 152.384C767.319 148.384 765.619 145.384 763.519 143.184C761.319 141.084 758.519 139.984 755.119 140.084C750.819 140.184 746.319 142.684 741.719 147.784C737.119 152.784 732.719 159.384 728.619 167.584C724.419 175.784 720.719 184.684 717.319 194.384C714.019 204.084 711.419 213.684 709.619 223.384C707.819 232.984 706.919 241.784 707.119 249.684C707.219 256.784 708.619 262.284 711.219 266.184C713.819 270.184 717.419 272.084 722.119 271.984ZM785.919 285.484C775.619 285.684 768.019 283.484 763.219 278.784C758.419 274.184 755.919 267.784 755.819 259.684C755.819 257.584 755.819 255.784 755.919 254.184C756.019 252.584 756.119 251.284 756.319 250.184L761.019 224.284L769.019 197.584L773.119 168.784L782.019 128.784L827.019 127.984L793.519 263.984C793.119 265.684 792.919 267.384 792.919 269.184C792.919 270.484 793.319 271.684 794.119 272.784C794.919 273.784 796.219 274.284 798.019 274.284C801.419 274.184 805.119 272.784 808.819 269.884C818.319 262.684 824.019 250.684 829.919 240.684C836.519 229.484 842.819 224.184 856.419 225.084C845.019 230.384 838.419 242.284 832.419 253.284C822.419 271.384 807.719 285.084 785.919 285.484Z" fill="#6F4F38"/>
  <path d="M89.7188 106.084V104.884L856.619 100.684V101.884L89.7188 106.084Z" fill="#6F4F38"/>
  <path d="M89.6187 99.5839V98.4839L856.619 95.4839V96.5839L89.6187 99.5839Z" fill="#6F4F38"/>
  <path d="M90.2188 92.5839V91.4839L856.619 90.0839L856.519 91.2838L90.2188 92.5839Z" fill="#6F4F38"/>
  <path d="M89.6187 85.8838V84.6838L856.519 83.6838V84.8838L89.6187 85.8838Z" fill="#6F4F38"/>
  <path d="M89.8688 66.5173L89.3096 123.017L92.4095 123.048L92.9688 66.548L89.8688 66.5173Z" fill="#6F4F38"/>
  <path d="M241.219 282.984C231.519 282.984 224.519 280.884 220.119 276.684C215.819 272.484 213.619 266.884 213.619 259.984C213.619 256.984 213.819 254.184 214.319 251.584C214.719 248.984 215.219 246.784 215.619 244.984L243.519 132.784L245.319 126.284H283.619L250.319 260.984C250.119 261.884 249.919 262.784 249.819 263.784C249.619 264.784 249.619 265.684 249.619 266.584C249.619 268.184 249.919 269.384 250.619 270.384C251.319 271.384 252.419 271.884 254.019 271.884C257.119 271.884 260.419 270.484 263.819 267.784C267.219 265.084 271.019 260.284 275.019 253.484C279.019 246.684 283.419 237.284 288.019 225.284L293.819 227.484C289.019 240.284 284.119 250.784 279.019 258.884C274.019 267.084 268.419 273.084 262.319 276.984C256.419 281.084 249.319 282.984 241.219 282.984Z" fill="#6F4F38"/>
  <path d="M270.219 116.184C283.308 116.184 293.919 105.573 293.919 92.4839C293.919 79.3948 283.308 68.7839 270.219 68.7839C257.129 68.7839 246.519 79.3948 246.519 92.4839C246.519 105.573 257.129 116.184 270.219 116.184Z" fill="#6F4F38"/>
  <path d="M270.219 107.384C278.448 107.384 285.119 100.713 285.119 92.4839C285.119 84.2548 278.448 77.5839 270.219 77.5839C261.99 77.5839 255.319 84.2548 255.319 92.4839C255.319 100.713 261.99 107.384 270.219 107.384Z" fill="white"/>
  <path d="M243.419 133.384C237.819 134.984 232.319 136.884 227.119 139.184C211.119 145.984 197.019 155.484 181.719 163.284C137.519 185.984 76.7188 193.184 36.6188 165.284C-14.4812 129.784 -13.6812 41.7839 49.0188 11.9839C67.2188 3.2839 99.4188 -1.6161 120.019 0.483897C172.219 5.6839 203.519 19.8839 248.619 34.3839C344.319 65.1839 448.819 67.6839 550.919 65.1839C653.019 62.6839 854.619 56.2839 856.719 68.9839C846.319 68.5839 632.219 73.6839 519.919 73.6839C407.619 73.6839 292.919 64.2839 190.019 25.4839C151.019 10.7839 105.619 5.38388 65.4188 17.2839C48.9188 22.1839 34.7188 32.0839 24.7188 44.3839C3.21878 70.6839 1.81878 108.084 21.3188 135.584C40.8188 163.084 80.1188 179.284 117.219 175.084C150.519 171.284 178.819 153.184 208.319 139.284C237.819 125.384 249.619 119.184 282.919 126.284C282.819 126.784 282.019 129.884 282.019 129.884C266.219 128.384 259.719 128.684 243.419 133.384Z" fill="#6F4F38"/>
</svg>
