<svg width="42" height="13" viewBox="0 0 42 13" fill="none" xmlns="http://www.w3.org/2000/svg">
  <path d="M0.072 12V0.799999H2.472V12H0.072ZM9.69088 12.192C8.57088 12.192 7.60554 11.952 6.79488 11.472C5.98421 10.9813 5.36021 10.304 4.92288 9.44C4.48554 8.56533 4.26688 7.56267 4.26688 6.432C4.26688 5.28 4.48554 4.272 4.92288 3.408C5.36021 2.53333 5.98421 1.85067 6.79488 1.36C7.60554 0.858666 8.57088 0.608 9.69088 0.608C11.0775 0.608 12.2082 0.954666 13.0829 1.648C13.9682 2.34133 14.5175 3.31733 14.7309 4.576H12.1069C11.9789 4.01067 11.7069 3.57333 11.2909 3.264C10.8749 2.944 10.3362 2.784 9.67488 2.784C9.04554 2.784 8.50688 2.93333 8.05888 3.232C7.62154 3.53067 7.28554 3.952 7.05088 4.496C6.82688 5.02933 6.71488 5.67467 6.71488 6.432C6.71488 7.168 6.82688 7.808 7.05088 8.352C7.28554 8.88533 7.62154 9.30133 8.05888 9.6C8.50688 9.888 9.04554 10.032 9.67488 10.032C10.3362 10.032 10.8695 9.89333 11.2749 9.616C11.6909 9.328 11.9682 8.91733 12.1069 8.384H14.7309C14.5175 9.568 13.9682 10.5013 13.0829 11.184C12.2082 11.856 11.0775 12.192 9.69088 12.192ZM16.5251 12V0.799999H19.4051L22.6691 7.536L25.9011 0.799999H28.7651V12H26.3651V4.848L23.6131 10.432H21.6931L18.9251 4.848V12H16.5251ZM30.1638 12L34.2438 0.799999H36.9958L41.0758 12H38.5318L35.6038 3.504L32.6758 12H30.1638ZM31.9398 9.552L32.5798 7.696H38.4518L39.0758 9.552H31.9398Z" fill="#FFF"/>
</svg>
