<svg width="379" height="128" viewBox="0 0 379 128" fill="none" xmlns="http://www.w3.org/2000/svg">
  <path d="M303.643 29.5677L303.823 23.9478L309.643 24.2977L309.543 29.7377L303.643 29.5677Z" fill="#243E90"/>
  <path d="M309.642 24.2977L312.022 17.8077L301.192 19.7777L303.822 23.9477" fill="#243E90"/>
  <path d="M284.552 30.3978L284.802 24.9178L290.572 25.1879L290.402 30.4878L284.552 30.3978Z" fill="#243E90"/>
  <path d="M290.573 25.1878L293.023 18.8278L282.243 20.8978L284.803 24.9178" fill="#243E90"/>
  <path d="M263.052 30.2777L263.302 24.7977L269.082 25.0677L268.902 30.3677L263.052 30.2777Z" fill="#243E90"/>
  <path d="M269.082 25.0678L271.532 18.7078L260.752 20.7778L263.302 24.7978" fill="#243E90"/>
  <path d="M242.712 31.4079L242.962 25.9279L248.742 26.1979L248.562 31.4979L242.712 31.4079Z" fill="#243E90"/>
  <path d="M248.743 26.1978L251.193 19.8378L240.413 21.8978L242.963 25.9278" fill="#243E90"/>
  <path d="M220.032 31.9278L220.282 26.4578L226.052 26.7178L225.882 32.0178L220.032 31.9278Z" fill="#243E90"/>
  <path d="M226.053 26.7178L228.503 20.3678L217.723 22.4278L220.283 26.4578" fill="#243E90"/>
  <path d="M202.833 88.8978L190.523 97.4278C187.463 100.088 184.733 103.108 182.313 106.358C181.113 107.968 180.073 109.708 178.823 111.278C177.483 112.958 175.983 114.508 174.483 116.038C171.333 119.228 167.663 121.858 163.473 123.918C159.273 125.978 154.463 127.058 149.033 127.158C141.253 127.298 135.253 125.368 131.043 121.358C126.833 117.348 124.663 111.918 124.533 105.068C124.423 99.2978 125.483 93.5478 127.703 87.8278C129.913 82.1378 133.073 76.8478 137.033 72.1978C141.033 67.4978 145.653 63.7078 150.883 60.8178C156.113 57.9278 161.693 56.4278 167.613 56.3178C171.963 56.2378 175.803 56.9678 179.113 58.4878C182.423 60.0178 185.003 61.9978 186.863 64.4378C188.723 66.8778 189.673 69.4178 189.723 72.0578C189.783 75.3878 188.783 78.1178 186.713 80.2678C184.643 82.4078 182.103 83.5078 179.063 83.5678C176.323 83.6178 173.853 82.8678 171.643 81.3178C169.433 79.7678 168.303 77.3578 168.243 74.0778C168.193 71.1378 169.163 68.7178 171.153 66.7878C173.153 64.8678 175.543 63.8778 178.333 63.8278C180.043 63.7978 181.753 64.0578 183.453 64.6178C185.153 65.1778 186.583 66.0678 187.763 67.2878C188.933 68.5178 189.543 70.1078 189.573 72.0678L186.933 72.1178C186.893 69.9678 186.083 67.9478 184.503 66.0678C182.923 64.1878 180.923 62.6778 178.513 61.5478C176.093 60.4178 173.563 59.8778 170.923 59.9278C167.453 59.9878 164.253 61.2778 161.343 63.7778C158.423 66.2778 155.833 69.5678 153.563 73.6478C151.293 77.7278 149.373 82.1278 147.823 86.8578C146.273 91.5878 145.093 96.2578 144.303 100.878C143.503 105.498 143.143 109.568 143.203 113.088C143.263 116.468 144.143 118.998 145.843 120.678C147.543 122.358 149.833 123.178 152.713 123.118C156.383 123.048 159.893 122.158 163.233 120.428C166.583 118.698 169.683 116.428 172.543 113.608C175.403 110.788 177.633 107.338 180.003 104.068C181.523 101.968 183.273 99.8578 185.163 98.0378C187.233 96.0478 189.623 94.4178 191.983 92.7878C194.813 90.8278 197.503 88.3478 200.653 86.8978L202.833 88.8978Z" fill="#243E90"/>
  <path d="M181.732 127.098L196.902 62.1278L197.562 59.2578L216.672 58.9078L200.892 126.748L181.732 127.098ZM220.632 126.378L231.392 80.9478C232.742 74.7578 233.572 70.2579 233.862 67.4679C234.152 64.6679 233.322 63.2879 231.362 63.3279C229.502 63.3579 227.372 64.5878 224.972 67.0078C222.572 69.4278 220.122 72.6878 217.622 76.7978C215.132 80.9078 212.802 85.5778 210.652 90.8078C208.492 96.0378 206.742 101.478 205.372 107.128L203.612 107.158C204.982 101.598 206.772 95.8979 208.982 90.0578C211.202 84.2178 213.782 78.8178 216.722 73.8678C219.662 68.9178 222.972 64.9079 226.632 61.8279C230.292 58.7479 234.232 57.1678 238.442 57.0978C242.452 57.0278 245.522 57.9878 247.632 59.9778C249.752 61.9678 251.062 64.6279 251.562 67.9479C252.062 71.2679 251.842 74.9178 250.882 78.8978L239.712 126.028L220.632 126.378ZM274.542 126.848C269.792 126.938 266.352 125.918 264.202 123.808C262.062 121.698 260.952 118.978 260.892 115.648C260.872 114.568 260.972 113.408 261.192 112.158C261.412 110.908 261.662 109.788 261.942 108.808L269.712 80.2479C271.362 74.1479 272.242 69.7179 272.362 66.9479C272.482 64.1779 271.592 62.8178 269.682 62.8478C267.822 62.8778 265.732 64.0978 263.402 66.4878C261.072 68.8778 258.692 72.1178 256.272 76.1978C253.852 80.2778 251.602 84.9279 249.522 90.1279C247.442 95.3279 245.712 100.758 244.352 106.418L242.592 106.448C243.952 100.798 245.682 95.0478 247.782 89.2078C249.872 83.3678 252.362 77.9879 255.232 73.0679C258.102 68.1479 261.342 64.1578 264.962 61.0978C268.582 58.0478 272.582 56.4778 276.992 56.3978C281.392 56.3178 284.652 57.2678 286.772 59.2678C288.892 61.2578 290.102 63.9178 290.412 67.2378C290.722 70.5578 290.322 74.2178 289.222 78.1978L278.852 116.718C278.712 117.258 278.592 117.838 278.482 118.448C278.372 119.058 278.322 119.618 278.332 120.098C278.342 120.688 278.522 121.158 278.872 121.518C279.222 121.878 279.742 122.048 280.422 122.038C281.892 122.008 283.492 121.378 285.232 120.148C286.972 118.918 288.832 116.788 290.802 113.768C292.772 110.748 294.822 106.528 296.922 101.098L299.732 101.998C297.442 107.968 295.112 112.758 292.732 116.368C290.352 119.988 287.692 122.618 284.762 124.258C281.802 125.918 278.402 126.778 274.542 126.848Z" fill="#243E90"/>
  <path d="M311.793 126.368C305.043 126.488 300.113 124.418 297.033 120.138C293.953 115.858 292.333 110.108 292.203 102.858C292.103 97.2277 293.043 91.6477 295.053 86.0977C297.053 80.5577 299.773 75.4977 303.213 70.9277C306.653 66.3577 310.503 62.6777 314.753 59.8777C319.003 57.0777 323.363 55.6477 327.813 55.5577C330.843 55.4977 333.383 56.2277 335.413 57.7277C337.443 59.2277 338.983 61.3477 340.013 64.0677C341.043 66.7877 341.593 70.0077 341.663 73.7277C341.713 76.1777 341.453 79.1577 340.913 82.6677C340.363 86.1777 339.533 89.8977 338.403 93.8377C337.273 97.7777 335.893 101.648 334.253 105.448C332.613 109.248 330.663 112.708 328.423 115.838C326.183 118.958 323.673 121.478 320.893 123.388C318.113 125.298 315.063 126.308 311.793 126.368ZM318.053 119.798C320.013 119.758 322.013 118.718 324.053 116.678C326.093 114.638 328.043 111.918 329.883 108.528C331.733 105.138 333.373 101.398 334.813 97.3077C336.253 93.2177 337.373 89.0977 338.183 84.9477C338.983 80.7977 339.353 76.9377 339.293 73.3577C339.253 70.9577 338.973 68.8877 338.483 67.1277C337.983 65.3777 337.263 64.0277 336.313 63.0977C335.363 62.1577 334.133 61.7077 332.613 61.7377C330.703 61.7777 328.743 62.8977 326.723 65.1177C324.713 67.3377 322.783 70.2477 320.933 73.8477C319.093 77.4577 317.443 81.3877 315.973 85.6477C314.513 89.9077 313.373 94.1677 312.573 98.4177C311.773 102.668 311.403 106.528 311.463 110.008C311.523 113.138 312.113 115.568 313.253 117.278C314.403 118.998 316.003 119.828 318.053 119.798ZM346.143 125.738C341.593 125.818 338.253 124.848 336.143 122.808C334.023 120.768 332.933 117.958 332.863 114.388C332.843 113.458 332.853 112.648 332.893 111.968C332.923 111.278 332.993 110.698 333.083 110.198L335.143 98.7777L338.673 87.0378L340.493 74.3777L344.423 56.7577L364.243 56.3877L349.493 116.288C349.313 117.028 349.223 117.788 349.243 118.568C349.253 119.158 349.433 119.678 349.783 120.138C350.133 120.598 350.703 120.818 351.483 120.808C353.003 120.778 354.593 120.138 356.253 118.888C360.443 115.728 362.933 110.448 365.543 106.038C368.473 101.088 371.213 98.7677 377.213 99.1477C372.183 101.478 369.303 106.728 366.623 111.588C362.213 119.538 355.773 125.558 346.143 125.738Z" fill="#243E90"/>
  <path d="M37.9824 46.6777V46.1577L377.172 44.3278L377.162 44.8777L37.9824 46.6777Z" fill="#243E90"/>
  <path d="M38.0925 43.8378L38.0825 43.3178L377.183 42.0278V42.5478L38.0925 43.8378Z" fill="#243E90"/>
  <path d="M38.0127 40.7478V40.2278L377.193 39.6678V40.1879L38.0127 40.7478Z" fill="#243E90"/>
  <path d="M38.1226 37.7778V37.2578L377.213 36.8378L377.203 37.3578L38.1226 37.7778Z" fill="#243E90"/>
  <path d="M39.596 29.2577L39.3496 54.1477L40.7296 54.1614L40.976 29.2714L39.596 29.2577Z" fill="#243E90"/>
  <path d="M106.243 124.648C101.973 124.648 98.8825 123.718 96.9725 121.858C95.0625 119.998 94.1025 117.548 94.1025 114.518C94.1025 113.198 94.2025 111.958 94.4025 110.808C94.6025 109.658 94.7825 108.688 94.9625 107.908L107.233 58.4978L108.043 55.6378H124.913L110.263 114.958C110.173 115.348 110.093 115.768 110.033 116.208C109.963 116.648 109.933 117.068 109.933 117.458C109.933 118.148 110.083 118.708 110.393 119.148C110.703 119.588 111.203 119.808 111.913 119.808C113.273 119.808 114.713 119.208 116.233 118.008C117.753 116.808 119.403 114.718 121.183 111.728C122.963 108.738 124.863 104.608 126.893 99.3178L129.463 100.268C127.353 105.898 125.183 110.508 122.963 114.108C120.743 117.708 118.293 120.358 115.603 122.078C112.933 123.788 109.813 124.648 106.243 124.648Z" fill="#243E90"/>
  <path d="M119.022 51.1977C124.794 51.1977 129.472 46.5191 129.472 40.7477C129.472 34.9764 124.794 30.2977 119.022 30.2977C113.251 30.2977 108.572 34.9764 108.572 40.7477C108.572 46.5191 113.251 51.1977 119.022 51.1977Z" fill="#243E90"/>
  <path d="M119.022 47.3079C122.645 47.3079 125.582 44.3709 125.582 40.7479C125.582 37.1249 122.645 34.1879 119.022 34.1879C115.399 34.1879 112.462 37.1249 112.462 40.7479C112.462 44.3709 115.399 47.3079 119.022 47.3079Z" fill="white"/>
  <path d="M107.562 58.7278C105.092 59.4378 102.672 60.2878 100.342 61.2778C93.2922 64.2678 87.0322 68.4478 80.2822 71.9078C60.7722 81.9178 33.9122 85.0578 16.1822 72.7678C-6.39778 57.1178 -6.04778 18.3778 21.6622 5.26778C29.7222 1.44778 43.9422 -0.702216 53.0122 0.207784C76.0722 2.50778 89.8922 8.75778 109.822 15.1578C152.092 28.7378 198.292 29.8078 243.372 28.7178C288.452 27.6278 377.532 24.8178 378.462 30.3978C373.882 30.2378 279.282 32.4678 229.662 32.4878C180.042 32.4978 129.392 28.3478 83.9122 11.2378C66.6722 4.74778 46.6222 2.38778 28.8522 7.62778C21.5622 9.77778 15.3022 14.1678 10.8722 19.5778C1.38222 31.1678 0.772219 47.6278 9.39222 59.7578C18.0122 71.8878 35.3622 79.0078 51.7522 77.1378C66.4822 75.4578 78.9622 67.4778 91.9822 61.3578C105.002 55.2378 110.212 52.4978 124.922 55.6378C124.872 55.8578 124.532 57.2278 124.532 57.2278C117.642 56.5578 114.762 56.6678 107.562 58.7278Z" fill="#243E90"/>
</svg>
